<?xml version="1.0" encoding="utf-8"?>
<!-- Generator: Adobe Illustrator 25.4.1, SVG Export Plug-In . SVG Version: 6.00 Build 0)  -->
<svg version="1.1" xmlns="http://www.w3.org/2000/svg" xmlns:xlink="http://www.w3.org/1999/xlink" x="0px" y="0px"
	 viewBox="0 0 640.8 215.16" style="enable-background:new 0 0 640.8 215.16;" xml:space="preserve">
<style type="text/css">
	.st0{display:none;}
	.st1{display:inline;}
	.st2{fill:#FFFFFF;}
	.st3{fill:#58595B;}
	.st4{fill:url(#SVGID_1_);}
	.st5{fill:url(#SVGID_00000137811694451833913140000008023493577015911596_);}
	.st6{fill:url(#SVGID_00000031183934274971649170000016021704636608976573_);}
	.st7{fill:url(#SVGID_00000107564572980348702050000006363904092439666855_);}
	.st8{fill:#800000;}
</style>
<g id="DOES_NOT_PRINT" class="st0">
	<rect y="0.15" class="st1" width="639.99" height="215.16"/>
</g>
<g id="rule">
	<g>
		<rect x="161.26" y="79.37" class="st2" width="430.32" height="1.67"/>
	</g>
</g>
<g id="tertiary">
</g>
<g id="secondary">
	<g>
		<path class="st2" d="M161.25,92.64h12.01c9.68,0,16.37,6.65,16.37,15.31v0.09c0,8.67-6.69,15.4-16.37,15.4h-12.01V92.64z
			 M173.27,117.32c5.54,0,9.28-3.74,9.28-9.2v-0.09c0-5.46-3.74-9.29-9.28-9.29h-5.24v18.57H173.27z"/>
		<path class="st2" d="M203.63,92.42h6.25l13.2,31.02h-7.08l-2.82-6.91h-13.03l-2.82,6.91h-6.91L203.63,92.42z M210.76,110.55
			l-4.09-9.99l-4.09,9.99H210.76z"/>
		<path class="st2" d="M231.32,98.89h-9.37v-6.25h25.52v6.25h-9.37v24.56h-6.78V98.89z"/>
		<path class="st2" d="M259.51,92.42h6.25l13.2,31.02h-7.08l-2.82-6.91h-13.03l-2.82,6.91h-6.91L259.51,92.42z M266.64,110.55
			l-4.09-9.99l-4.09,9.99H266.64z"/>
		<path class="st2" d="M296.11,118.95l4-4.8c2.77,2.29,5.68,3.74,9.2,3.74c2.77,0,4.44-1.1,4.44-2.9v-0.09c0-1.72-1.06-2.6-6.2-3.92
			c-6.21-1.58-10.21-3.3-10.21-9.42v-0.09c0-5.59,4.49-9.29,10.78-9.29c4.49,0,8.32,1.41,11.44,3.92l-3.52,5.1
			c-2.73-1.89-5.41-3.04-8.01-3.04s-3.96,1.19-3.96,2.68v0.09c0,2.02,1.32,2.68,6.64,4.05c6.25,1.63,9.77,3.87,9.77,9.24v0.09
			c0,6.12-4.67,9.55-11.31,9.55C304.52,123.88,299.81,122.25,296.11,118.95z"/>
		<path class="st2" d="M324.99,108.13v-0.09c0-8.76,6.6-15.93,16.06-15.93c5.81,0,9.29,1.94,12.15,4.75l-4.31,4.97
			c-2.38-2.16-4.8-3.48-7.88-3.48c-5.19,0-8.93,4.31-8.93,9.59v0.09c0,5.28,3.65,9.68,8.93,9.68c3.52,0,5.68-1.41,8.1-3.61
			l4.31,4.36c-3.17,3.39-6.69,5.5-12.63,5.5C331.72,123.97,324.99,116.97,324.99,108.13z"/>
		<path class="st2" d="M358.96,92.64h6.78v30.8h-6.78V92.64z"/>
		<path class="st2" d="M373.85,92.64h23.24v6.03h-16.5v6.25h14.52v6.03h-14.52v6.47h16.72v6.03h-23.46V92.64z"/>
		<path class="st2" d="M404.18,92.64h6.25l14.43,18.97V92.64h6.69v30.8h-5.76l-14.92-19.58v19.58h-6.69V92.64z"/>
		<path class="st2" d="M438.03,108.13v-0.09c0-8.76,6.6-15.93,16.06-15.93c5.81,0,9.29,1.94,12.15,4.75l-4.31,4.97
			c-2.38-2.16-4.8-3.48-7.88-3.48c-5.19,0-8.93,4.31-8.93,9.59v0.09c0,5.28,3.65,9.68,8.93,9.68c3.52,0,5.68-1.41,8.1-3.61
			l4.31,4.36c-3.17,3.39-6.69,5.5-12.63,5.5C444.77,123.97,438.03,116.97,438.03,108.13z"/>
		<path class="st2" d="M471.88,92.64h23.24v6.03h-16.5v6.25h14.52v6.03h-14.52v6.47h16.72v6.03h-23.46V92.64z"/>
		<path class="st2" d="M161.56,136.64h6.78v30.8h-6.78V136.64z"/>
		<path class="st2" d="M176.45,136.64h6.25l14.43,18.97v-18.97h6.69v30.8h-5.77l-14.92-19.58v19.58h-6.69V136.64z"/>
		<path class="st2" d="M209.64,162.95l4-4.8c2.77,2.29,5.68,3.74,9.2,3.74c2.77,0,4.44-1.1,4.44-2.9v-0.09
			c0-1.72-1.06-2.6-6.21-3.92c-6.2-1.58-10.21-3.3-10.21-9.42v-0.09c0-5.59,4.49-9.29,10.78-9.29c4.49,0,8.32,1.41,11.44,3.92
			l-3.52,5.1c-2.73-1.89-5.41-3.04-8.01-3.04c-2.6,0-3.96,1.19-3.96,2.68v0.09c0,2.02,1.32,2.68,6.64,4.05
			c6.25,1.63,9.77,3.87,9.77,9.24v0.09c0,6.12-4.67,9.55-11.31,9.55C218.05,167.88,213.34,166.25,209.64,162.95z"/>
		<path class="st2" d="M247.26,142.89h-9.37v-6.25h25.52v6.25h-9.37v24.56h-6.78V142.89z"/>
		<path class="st2" d="M268.62,136.64h6.78v30.8h-6.78V136.64z"/>
		<path class="st2" d="M289.91,142.89h-9.37v-6.25h25.52v6.25h-9.37v24.56h-6.78V142.89z"/>
		<path class="st2" d="M310.89,154.24v-17.6h6.78v17.43c0,5.02,2.51,7.61,6.65,7.61s6.64-2.51,6.64-7.39v-17.65h6.78v17.38
			c0,9.33-5.24,13.91-13.51,13.91C315.95,167.93,310.89,163.31,310.89,154.24z"/>
		<path class="st2" d="M351.94,142.89h-9.37v-6.25h25.52v6.25h-9.37v24.56h-6.78V142.89z"/>
		<path class="st2" d="M373.15,136.64h23.24v6.03h-16.5v6.25h14.52v6.03h-14.52v6.47h16.72v6.03h-23.46V136.64z"/>
	</g>
	<path class="st2" d="M71.53,74.31l-0.04,0.01l-1.38,0.43l-0.03,0.01c-0.6,0.19-1.24-0.13-1.43-0.71c-0.19-0.57,0.13-1.18,0.72-1.37
		l1.43-0.47c0.6-0.2,1.25,0.11,1.46,0.69c0.2,0.58-0.12,1.21-0.72,1.4C71.53,74.3,71.53,74.31,71.53,74.31z M72.73,79.01L72.77,79
		l1.57-0.47l0.04-0.01c0,0,0.01,0,0.01,0c0.63-0.2,0.98-0.85,0.77-1.46c-0.21-0.61-0.88-0.94-1.52-0.75l-1.64,0.51
		c-0.62,0.19-0.96,0.83-0.77,1.43C71.44,78.86,72.11,79.2,72.73,79.01z M78.04,87.55l0.06-0.02l1.95-0.51L80.11,87
		c0,0,0.01,0,0.01,0c0.7-0.2,1.1-0.9,0.9-1.57c-0.2-0.67-0.93-1.06-1.63-0.87l-2.06,0.57c-0.68,0.19-1.08,0.87-0.89,1.53
		C76.63,87.34,77.34,87.73,78.04,87.55z M75.39,83.28l0.05-0.01l1.76-0.49l0.05-0.01c0,0,0.01,0,0.01,0
		c0.67-0.2,1.04-0.88,0.83-1.52c-0.21-0.64-0.91-1-1.58-0.8l-1.85,0.55c-0.65,0.19-1.02,0.85-0.83,1.48
		C74.03,83.1,74.72,83.46,75.39,83.28z M83.4,86.35l0.06-0.01l2-0.27l0.07-0.01c0,0,0.01,0,0.01,0c0.74-0.11,1.25-0.78,1.13-1.5
		c-0.12-0.72-0.81-1.2-1.55-1.09l-2.12,0.32c-0.72,0.11-1.23,0.76-1.12,1.46C81.99,85.95,82.67,86.45,83.4,86.35z M82.66,81.68
		c0,0,0.01,0,0.01,0c0.71-0.12,1.18-0.78,1.05-1.46c-0.13-0.68-0.81-1.14-1.52-1.01l-1.9,0.33c-0.69,0.12-1.16,0.75-1.04,1.42
		c0.12,0.68,0.78,1.13,1.48,1.02l0.05-0.01l1.81-0.29L82.66,81.68z M73.54,66.59l-1.28,0.3c-0.6,0.14-0.97,0.71-0.84,1.29
		c0.14,0.58,0.74,0.95,1.35,0.82l0.03-0.01l1.23-0.27l0.03-0.01c0,0,0.01,0,0.01,0c0.61-0.14,0.99-0.73,0.84-1.32
		C74.76,66.81,74.14,66.45,73.54,66.59z M76.42,70.78l-1.49,0.32c-0.63,0.14-1.03,0.73-0.9,1.34c0.13,0.61,0.76,1.01,1.39,0.88
		l0.03-0.01l1.42-0.28l0.04-0.01c0,0,0.01,0,0.01,0c0.64-0.14,1.05-0.75,0.9-1.37C77.7,71.03,77.06,70.64,76.42,70.78z M67.95,68.12
		l-1.23,0.42c-0.56,0.19-0.85,0.78-0.66,1.32c0.19,0.55,0.81,0.84,1.37,0.66l0.02-0.01l1.19-0.39l0.03-0.01c0,0,0.01,0,0.01,0
		c0.57-0.19,0.87-0.8,0.67-1.34C69.14,68.21,68.52,67.92,67.95,68.12z M76.35,61.36l-1.09,0.16c-0.6,0.09-1.02,0.63-0.94,1.21
		c0.09,0.59,0.65,1,1.26,0.92l0.02,0l1.05-0.14l0.03,0c0,0,0.01,0,0.01,0c0.61-0.09,1.03-0.64,0.94-1.23
		C77.54,61.67,76.96,61.26,76.35,61.36z M79.31,74.98l-1.69,0.33c-0.66,0.13-1.09,0.74-0.97,1.38c0.12,0.65,0.77,1.07,1.44,0.95
		l0.04-0.01l1.62-0.29l0.05-0.01c0,0,0.01,0,0.01,0c0.68-0.13,1.11-0.77,0.98-1.42C80.64,75.27,79.99,74.85,79.31,74.98z
		 M88.17,81.25c0,0,0.01,0,0.01,0c0.74-0.04,1.31-0.66,1.27-1.37c-0.04-0.72-0.68-1.26-1.42-1.22l-1.93,0.11
		c-0.72,0.04-1.28,0.64-1.25,1.34c0.03,0.71,0.65,1.26,1.39,1.23l0.05,0l1.83-0.08L88.17,81.25z M70.66,62.42l-1.08,0.27
		c-0.57,0.14-0.91,0.69-0.78,1.24c0.14,0.55,0.72,0.9,1.29,0.76l0.02,0l1.04-0.24l0.03-0.01c0,0,0.01,0,0.01,0
		c0.58-0.14,0.93-0.71,0.78-1.27C71.83,62.62,71.24,62.28,70.66,62.42z M93.68,81.44c0,0,0.01,0,0.01,0
		c0.77,0.04,1.43-0.52,1.47-1.26c0.05-0.74-0.54-1.37-1.3-1.42l-1.93-0.11c-0.75-0.04-1.4,0.5-1.45,1.22
		c-0.06,0.73,0.51,1.37,1.27,1.42l0.06,0l1.82,0.13L93.68,81.44z M118.64,85.19c0.48-0.68,0.29-1.61-0.42-2.07l-1.44-0.93
		c-0.69-0.45-1.64-0.28-2.12,0.38c-0.48,0.67-0.31,1.59,0.38,2.06l0.04,0.03l1.34,0.9l0.05,0.03c0,0,0.01,0.01,0.01,0.01
		C117.21,86.05,118.17,85.87,118.64,85.19z M107.74,84.95l0.05,0.02l1.65,0.73l0.06,0.03c0,0,0.01,0,0.01,0.01
		c0.77,0.33,1.67-0.01,2-0.75c0.34-0.74-0.01-1.6-0.78-1.93l-1.77-0.76c-0.75-0.32-1.63,0-1.98,0.72
		C106.65,83.75,106.98,84.62,107.74,84.95z M110.14,90.22l0.06,0.03l1.77,0.91l0.07,0.04c0,0,0.01,0,0.01,0.01
		c0.78,0.38,1.73,0.09,2.12-0.66c0.4-0.75,0.09-1.66-0.69-2.04l-1.92-0.94c-0.76-0.37-1.69-0.09-2.09,0.63
		C109.09,88.93,109.38,89.83,110.14,90.22z M116.45,87.81c0.44-0.71,0.2-1.64-0.55-2.06l-1.67-0.96c-0.73-0.41-1.67-0.19-2.11,0.5
		c-0.45,0.7-0.22,1.62,0.51,2.05l0.05,0.03l1.55,0.92l0.06,0.04c0,0,0.01,0.01,0.01,0.01C115.05,88.76,116.01,88.53,116.45,87.81z
		 M121.86,77.2l0.77,0.69l0.03,0.02c0,0,0.01,0.01,0.01,0.01c0.62,0.54,1.57,0.49,2.13-0.11c0.56-0.59,0.51-1.51-0.11-2.05
		l-0.82-0.72c-0.61-0.53-1.54-0.49-2.1,0.09c-0.56,0.58-0.53,1.5,0.08,2.04L121.86,77.2z M119.48,77.51
		c-0.54,0.61-0.46,1.53,0.17,2.05l0.03,0.02l0.95,0.78l0.03,0.03c0,0,0.01,0.01,0.01,0.01c0.65,0.52,1.6,0.43,2.14-0.2
		c0.54-0.62,0.45-1.54-0.2-2.06l-1.01-0.81C120.96,76.83,120.02,76.91,119.48,77.51z M120.75,82.65c0.51-0.65,0.37-1.58-0.31-2.07
		l-1.22-0.88c-0.66-0.48-1.61-0.36-2.12,0.27c-0.52,0.64-0.39,1.56,0.27,2.06l0.04,0.03l1.14,0.85l0.04,0.03
		c0,0,0.01,0.01,0.01,0.01C119.28,83.44,120.24,83.3,120.75,82.65z M102.58,83.13l0.06,0.02l1.73,0.54l0.06,0.02
		c0.01,0,0.01,0,0.01,0c0.78,0.23,1.61-0.19,1.84-0.94c0.24-0.75-0.2-1.55-0.98-1.78l-1.85-0.55c-0.76-0.22-1.57,0.18-1.82,0.91
		C101.39,82.1,101.81,82.89,102.58,83.13z M99.13,82.27c0.01,0,0.01,0,0.01,0c0.78,0.14,1.53-0.36,1.67-1.11
		c0.14-0.75-0.38-1.47-1.16-1.6l-1.91-0.33c-0.76-0.13-1.49,0.35-1.64,1.08c-0.15,0.74,0.35,1.46,1.12,1.6l0.06,0.01l1.79,0.34
		L99.13,82.27z M94.38,85.94l0.07,0.01l2,0.22l0.07,0.01c0,0,0.01,0,0.01,0c0.8,0.07,1.5-0.49,1.58-1.25
		c0.08-0.77-0.51-1.45-1.3-1.52l-2.14-0.2c-0.78-0.07-1.47,0.47-1.56,1.22C93.02,85.17,93.59,85.86,94.38,85.94z M106.89,80.39
		c0,0,0.01,0,0.01,0.01c0.75,0.28,1.6-0.09,1.89-0.81c0.29-0.73-0.09-1.54-0.84-1.82l-1.61-0.6c-0.74-0.27-1.57,0.08-1.86,0.78
		c-0.3,0.72,0.06,1.53,0.81,1.81l0.05,0.02l1.52,0.58L106.89,80.39z M82.15,69.94l-1.5,0.16c-0.66,0.07-1.15,0.64-1.08,1.28
		c0.06,0.65,0.66,1.12,1.33,1.06l0.04,0l1.43-0.13l0.04,0c0,0,0.01,0,0.01,0c0.68-0.07,1.17-0.66,1.09-1.31
		C83.44,70.34,82.83,69.87,82.15,69.94z M88.88,85.81l0.07,0l2.02-0.03l0.07,0c0.01,0,0.01,0,0.01,0c0.78-0.02,1.39-0.64,1.36-1.39
		c-0.02-0.75-0.67-1.33-1.44-1.31l-2.15,0.06c-0.76,0.02-1.36,0.62-1.35,1.35C87.48,85.23,88.11,85.82,88.88,85.81z M101.7,78.61
		c0,0,0.01,0,0.01,0c0.76,0.19,1.53-0.25,1.73-0.98c0.2-0.73-0.26-1.48-1.02-1.67l-1.67-0.42c-0.74-0.18-1.5,0.24-1.71,0.95
		c-0.21,0.72,0.23,1.47,0.98,1.67l0.05,0.01l1.58,0.42L101.7,78.61z M93.68,61.44l-1.09-0.15c-0.67-0.09-1.3,0.35-1.4,1
		c-0.11,0.65,0.35,1.27,1.03,1.37l0.02,0l1.04,0.16l0.03,0c0,0,0.01,0,0.01,0c0.68,0.09,1.32-0.36,1.41-1.02
		C94.83,62.15,94.36,61.54,93.68,61.44z M110.5,74.72l-1.38-0.61c-0.71-0.31-1.56-0.02-1.89,0.67c-0.34,0.69-0.03,1.52,0.68,1.84
		l0.04,0.02l1.3,0.59l0.04,0.02c0,0,0.01,0,0.01,0.01c0.73,0.32,1.59,0.01,1.92-0.69C111.55,75.86,111.23,75.03,110.5,74.72z
		 M112.83,79.1l1.23,0.72l0.04,0.03c0,0,0.01,0,0.01,0.01c0.71,0.4,1.62,0.18,2.04-0.5c0.42-0.68,0.19-1.56-0.52-1.97l-1.31-0.75
		c-0.69-0.4-1.59-0.18-2.02,0.48c-0.43,0.67-0.21,1.55,0.49,1.96L112.83,79.1z M109.71,79.99c-0.39,0.7-0.12,1.57,0.61,1.95
		l0.04,0.02l1.44,0.75l0.05,0.03c0,0,0.01,0,0.01,0.01c0.74,0.37,1.65,0.09,2.03-0.62c0.38-0.71,0.1-1.59-0.64-1.95l-1.54-0.77
		C110.99,79.03,110.09,79.29,109.71,79.99z M109.91,71.79c-0.38,0.66-0.12,1.5,0.57,1.86l0.03,0.02l1.1,0.58l0.04,0.02
		c0,0,0.01,0,0.01,0.01c0.7,0.36,1.57,0.1,1.94-0.58c0.37-0.67,0.1-1.51-0.6-1.87l-1.16-0.59
		C111.14,70.88,110.28,71.13,109.91,71.79z M115.39,69.04l-0.95-0.54c-0.66-0.38-1.52-0.18-1.92,0.46c-0.41,0.64-0.2,1.48,0.46,1.87
		l0.02,0.01l0.9,0.53l0.03,0.02c0,0,0.01,0,0.01,0.01c0.67,0.39,1.54,0.17,1.95-0.48C116.28,70.26,116.06,69.43,115.39,69.04z
		 M110.27,66.37l-1-0.45c-0.68-0.3-1.48-0.03-1.81,0.62c-0.33,0.66-0.05,1.44,0.63,1.76l0.02,0.01l0.95,0.44l0.03,0.01
		c0,0,0.01,0,0.01,0.01c0.69,0.31,1.51,0.02,1.83-0.64C111.26,67.48,110.96,66.69,110.27,66.37z M120.21,72.18l-0.89-0.63
		c-0.64-0.45-1.54-0.33-2.02,0.28c-0.49,0.62-0.36,1.49,0.28,1.96l0.02,0.02l0.84,0.61l0.03,0.02c0,0,0.01,0.01,0.01,0.01
		c0.65,0.46,1.57,0.33,2.05-0.3C121,73.52,120.86,72.64,120.21,72.18z M61.09,66.6c-0.24-0.48-0.83-0.68-1.33-0.45l-0.99,0.46
		c-0.48,0.23-0.69,0.78-0.47,1.26c0.23,0.48,0.82,0.68,1.31,0.46l0.02-0.01l0.96-0.43l0.02-0.01c0,0,0.01,0,0.01,0
		C61.12,67.65,61.33,67.08,61.09,66.6z M127.92,76.73c-0.63,0.49-0.72,1.36-0.26,1.99c-0.56-0.32-1.28-0.29-1.79,0.15
		c-0.64,0.54-0.7,1.48-0.14,2.09l0.01,0.01c-0.6-0.43-1.43-0.42-1.99,0.09c-0.62,0.57-0.65,1.52-0.05,2.11l0.03,0.03l0.36,0.37
		l-0.34-0.3c-0.62-0.56-1.6-0.54-2.2,0.05c-0.6,0.6-0.58,1.55,0.04,2.13l0.03,0.03l1.03,0.96l0.04,0.04c0,0,0.01,0.01,0.01,0.01
		c0.64,0.57,1.63,0.54,2.23-0.07c0.6-0.61,0.56-1.57-0.07-2.15l-0.01-0.01c0.6,0.41,1.43,0.39,1.98-0.13
		c0.59-0.56,0.61-1.45,0.08-2.05c0.56,0.28,1.26,0.23,1.76-0.2c0.6-0.53,0.65-1.4,0.17-2.01c0.52,0.23,1.15,0.17,1.62-0.21
		c0.62-0.51,0.7-1.39,0.22-2.01c0.49,0.19,1.07,0.15,1.51-0.19c0.66-0.5,0.77-1.42,0.25-2.06L132,74.89
		c-0.51-0.62-1.45-0.74-2.11-0.25c-0.62,0.46-0.75,1.28-0.35,1.91C129.03,76.31,128.39,76.36,127.92,76.73z M114.85,74.41
		c-0.46,0.64-0.29,1.52,0.38,1.96l0.03,0.02l1.03,0.68l0.03,0.02c0,0,0.01,0.01,0.01,0.01c0.68,0.44,1.6,0.26,2.05-0.4
		c0.45-0.65,0.27-1.54-0.41-1.97l-1.1-0.7C116.2,73.61,115.3,73.78,114.85,74.41z M146.05,116.5c-0.02,0.36-0.04,0.73-0.07,1.09
		c-0.12,0.59-0.54,1.06-1.11,1.27l-0.03,0.46c-0.03,0.45-0.24,0.83-0.54,1.12c0.69,0.24,1.17,0.84,1.2,1.53
		c-0.06,0.44-0.13,0.87-0.2,1.31c-0.17,0.46-0.54,0.8-0.99,0.99l-0.1,0.65c-0.07,0.42-0.3,0.77-0.6,1.03
		c0.53,0.33,0.85,0.89,0.85,1.49c-0.11,0.48-0.24,0.96-0.36,1.43c-0.19,0.34-0.5,0.61-0.85,0.77l-0.21,0.8
		c-0.1,0.41-0.36,0.72-0.68,0.96c0.38,0.36,0.59,0.87,0.55,1.39c-0.17,0.51-0.35,1.01-0.54,1.51c-0.19,0.27-0.44,0.48-0.73,0.61
		c-0.01,0.03,0,0.06-0.01,0.09l-0.3,0.83c-0.15,0.41-0.45,0.71-0.8,0.92c0.27,0.37,0.4,0.83,0.33,1.28c-0.22,0.5-0.46,1-0.7,1.5
		c-0.18,0.19-0.39,0.35-0.63,0.46c-0.03,0.09-0.02,0.17-0.06,0.26l-0.38,0.8c-0.18,0.38-0.49,0.64-0.84,0.82
		c-0.02,0.04-0.01,0.07-0.03,0.11c0.14,0.34,0.19,0.72,0.11,1.08c-0.28,0.49-0.56,0.99-0.85,1.47c-0.15,0.14-0.33,0.25-0.52,0.34
		c-0.04,0.14-0.07,0.28-0.14,0.4l-0.45,0.76c-0.19,0.31-0.47,0.52-0.78,0.68c-0.04,0.09-0.05,0.18-0.1,0.27l-0.08,0.13
		c0.03,0.25,0.01,0.5-0.06,0.74c-0.34,0.49-0.68,0.97-1.03,1.45c-0.12,0.09-0.26,0.16-0.39,0.23c-0.06,0.18-0.12,0.35-0.24,0.51
		l-0.53,0.71c-0.19,0.26-0.44,0.43-0.72,0.57c-0.06,0.13-0.1,0.26-0.19,0.38l-0.25,0.33c-0.03,0.13-0.06,0.26-0.11,0.39
		c-0.39,0.46-0.78,0.92-1.18,1.37c-0.09,0.05-0.18,0.1-0.28,0.14c-0.05,0.14-0.12,0.28-0.21,0.4c-0.33,0.37-0.67,0.73-1.01,1.09
		c-0.12,0.09-0.25,0.17-0.39,0.23c-0.08,0.15-0.15,0.31-0.28,0.45l-0.5,0.53c-0.42,0.42-0.85,0.84-1.28,1.25c0,0-0.01,0-0.01,0.01
		l-0.08,0.08c-3.43,3.22-7.28,6.13-11.55,8.64l-4.39-6.92c0.07-0.06,0.15-0.12,0.24-0.17c0.71-0.43,1.54-0.64,2.37-0.66
		c-0.85-0.41-1.91-0.4-2.73,0.08c-0.09,0.05-0.18,0.09-0.27,0.13l-2.2-3.48c0.07-0.05,0.14-0.11,0.21-0.15l0.02-0.01
		c1.36-0.83,3.01-1.1,4.61-0.93c-0.35-0.16-0.72-0.29-1.1-0.37c-0.07-0.01-0.12-0.06-0.19-0.08c-0.07,0-0.13,0.02-0.19,0.01
		c-0.01,0-0.02,0-0.03,0c-1.21-0.16-2.47,0.08-3.53,0.69c-0.09,0.05-0.17,0.09-0.26,0.13l-2.14-3.38c0.07-0.06,0.15-0.12,0.23-0.17
		c1.83-1.1,4.08-1.59,6.24-1.32l0.02,0c0.13,0.02,0.23,0.08,0.35,0.11c0.03,0,0.06,0,0.09,0c-0.92-0.37-1.88-0.64-2.88-0.66
		c-0.11,0-0.21-0.05-0.31-0.07c-0.1,0.02-0.18,0.07-0.28,0.07c-0.01,0-0.03,0-0.03,0c-1.29,0.06-2.56,0.44-3.69,1.08
		c-0.08,0.05-0.17,0.09-0.26,0.12l-2.08-3.28c0.07-0.06,0.15-0.11,0.23-0.16c1.66-0.99,3.58-1.6,5.54-1.72l0.01,0
		c0.17-0.01,0.32,0.04,0.47,0.06c0.15-0.03,0.3-0.09,0.47-0.09c0.87,0.01,1.74,0.12,2.59,0.31c-0.15-0.06-0.29-0.15-0.44-0.21
		c-0.14-0.05-0.25-0.15-0.37-0.22c-0.13-0.01-0.26,0.01-0.39-0.03c-0.01,0-0.03-0.01-0.04-0.01c-1.26-0.36-2.58-0.49-3.89-0.38
		c-0.15,0.01-0.29-0.03-0.43-0.05c-0.12,0.05-0.23,0.12-0.36,0.14c-0.01,0-0.03,0.01-0.04,0.01c-1.3,0.21-2.55,0.65-3.69,1.31
		c-0.08,0.05-0.17,0.09-0.26,0.12l-2.02-3.18c0.07-0.06,0.14-0.11,0.23-0.16c1.53-0.92,3.25-1.56,5.04-1.88
		c0.2-0.04,0.4-0.01,0.59,0.01c0.18-0.07,0.35-0.15,0.55-0.17c1.8-0.18,3.64-0.03,5.39,0.44c-0.85-0.38-1.73-0.69-2.64-0.89
		c-0.18-0.04-0.34-0.13-0.5-0.21c-0.16,0.02-0.32,0.06-0.49,0.04c-0.01,0-0.03,0-0.04,0c-1.29-0.17-2.6-0.16-3.89,0.04
		c-0.19,0.03-0.37,0-0.55-0.02c-0.14,0.08-0.28,0.17-0.45,0.21c-0.01,0-0.03,0.01-0.03,0.01c-1.26,0.3-2.48,0.79-3.61,1.44
		c-0.08,0.05-0.17,0.09-0.25,0.12l-1.95-3.08c0.07-0.06,0.14-0.11,0.22-0.16c1.43-0.86,2.99-1.51,4.63-1.93
		c0.23-0.06,0.47-0.06,0.69-0.04c0.19-0.11,0.4-0.2,0.64-0.24c1.66-0.29,3.37-0.33,5.05-0.14c0.24,0.03,0.46,0.11,0.66,0.21
		c0.22-0.03,0.45-0.04,0.68,0c0.72,0.14,1.43,0.35,2.12,0.57c-0.19-0.09-0.37-0.2-0.56-0.29c-0.21-0.09-0.37-0.23-0.53-0.37
		c-0.2,0-0.39-0.01-0.59-0.08c-0.01,0-0.03-0.01-0.03-0.01c-1.19-0.42-2.44-0.7-3.7-0.83c-0.23-0.02-0.43-0.1-0.62-0.19
		c-0.19,0.06-0.38,0.11-0.59,0.11c-0.01,0-0.03,0-0.03,0c-1.27-0.04-2.55,0.08-3.79,0.34c-0.22,0.05-0.44,0.04-0.65,0.01
		c-0.16,0.11-0.32,0.22-0.52,0.28c-0.01,0-0.03,0.01-0.03,0.01c-1.22,0.36-2.39,0.86-3.49,1.5c-0.08,0.05-0.16,0.08-0.25,0.12
		l-1.89-2.99c0.07-0.06,0.14-0.11,0.22-0.16c1.34-0.8,2.78-1.45,4.29-1.92c0.26-0.08,0.53-0.1,0.79-0.07
		c0.21-0.15,0.44-0.27,0.71-0.33c1.54-0.35,3.13-0.52,4.71-0.5c0.28,0,0.53,0.07,0.77,0.17c0.25-0.08,0.51-0.12,0.78-0.09
		c1.58,0.14,3.14,0.47,4.64,0.97c0.26,0.09,0.49,0.22,0.68,0.39c0.12,0,0.25,0.01,0.37,0.04c-0.05-0.02-0.1-0.04-0.15-0.07
		c-0.01,0-0.02-0.01-0.03-0.02c-1.07-0.58-2.2-1.06-3.38-1.42c-0.25-0.08-0.47-0.2-0.66-0.36c-0.23,0.03-0.46,0.04-0.7-0.01
		c-0.01,0-0.03-0.01-0.03-0.01c-1.2-0.27-2.43-0.42-3.66-0.46c-0.26-0.01-0.51-0.07-0.73-0.17c-0.21,0.1-0.44,0.17-0.68,0.18
		c-0.01,0-0.03,0-0.03,0c-1.23,0.06-2.46,0.25-3.66,0.55c-0.25,0.06-0.5,0.07-0.75,0.03c-0.17,0.16-0.38,0.28-0.61,0.37
		c-0.01,0-0.02,0.01-0.03,0.01c-1.17,0.4-2.29,0.91-3.36,1.52c-0.08,0.05-0.16,0.08-0.25,0.12l-1.83-2.89
		c0.07-0.06,0.14-0.11,0.22-0.16c1.26-0.75,2.6-1.39,3.99-1.88c0.3-0.11,0.6-0.11,0.9-0.06c0.21-0.2,0.46-0.37,0.76-0.45
		c1.43-0.39,2.91-0.63,4.39-0.73c0.32-0.02,0.61,0.06,0.88,0.17c0.26-0.13,0.55-0.22,0.87-0.22c1.49,0.02,2.97,0.18,4.43,0.48
		c0.31,0.06,0.57,0.21,0.8,0.4c0.29-0.05,0.59-0.06,0.9,0.03c0.68,0.2,1.35,0.43,2.01,0.69l-0.7-0.41l-0.28-0.17
		c-0.16-0.09-0.27-0.22-0.39-0.35c-0.17,0-0.33,0.01-0.5-0.04c-0.01,0-0.01,0-0.02-0.01l-0.32-0.09l-3.4-1.01l-0.31-0.09
		c-0.18-0.05-0.33-0.15-0.48-0.25c-0.16,0.04-0.33,0.09-0.5,0.08c-0.01,0-0.01,0-0.02,0l-0.32-0.02l-3.56-0.17l-0.31-0.01
		c-0.19-0.01-0.36-0.07-0.53-0.13c-0.15,0.08-0.29,0.16-0.47,0.2c-0.01,0-0.01,0-0.02,0l-0.31,0.06l-3.5,0.69l-0.3,0.06
		c-0.19,0.04-0.38,0.02-0.56,0c-0.12,0.12-0.25,0.24-0.41,0.32c-0.01,0-0.01,0.01-0.02,0.01l-0.28,0.13l-3.22,1.52l-0.24,0.11
		l-1.78-2.81c0.07-0.05,0.14-0.1,0.22-0.13l3.73-1.83c0.31-0.15,0.65-0.18,0.98-0.14c0.23-0.23,0.51-0.41,0.85-0.49l4.09-0.87
		c0.34-0.07,0.67-0.02,0.98,0.09c0.28-0.16,0.6-0.27,0.95-0.26l4.19,0.14c0.35,0.01,0.66,0.14,0.93,0.32
		c0.32-0.08,0.65-0.11,0.99-0.02l4.03,1.14c0.34,0.1,0.6,0.29,0.82,0.52c0.33,0,0.66,0.05,0.96,0.22l0.4,0.23
		c-0.18-0.14-0.31-0.3-0.43-0.48c-0.21-0.01-0.43-0.05-0.63-0.14c-0.01,0-0.01-0.01-0.02-0.01l-0.26-0.12l-3.09-1.39l-0.25-0.11
		c-0.22-0.1-0.41-0.24-0.56-0.4c-0.21,0.03-0.44,0.04-0.66,0c-0.01,0-0.01,0-0.02,0l-0.27-0.06l-3.34-0.7l-0.26-0.05
		c-0.24-0.05-0.46-0.15-0.65-0.27c-0.2,0.08-0.42,0.14-0.65,0.15c-0.01,0-0.01,0-0.02,0l-0.27,0l-3.42,0.04l-0.26,0
		c-0.25,0-0.48-0.05-0.69-0.13c-0.18,0.13-0.38,0.23-0.61,0.29c-0.01,0-0.01,0-0.02,0l-0.26,0.06l-3.33,0.79l-0.25,0.06
		c-0.25,0.06-0.49,0.05-0.72,0.01c-0.14,0.17-0.32,0.33-0.54,0.44c-0.01,0-0.01,0.01-0.02,0.01l-0.23,0.11l-3.07,1.49l-0.22,0.11
		c-0.01,0-0.01,0.01-0.02,0.01l-1.72-2.72c0.07-0.05,0.14-0.1,0.22-0.14l3.48-1.76c0.35-0.18,0.73-0.2,1.09-0.14
		c0.22-0.28,0.52-0.51,0.9-0.61l3.81-0.96c0.38-0.1,0.75-0.04,1.09,0.1c0.29-0.22,0.63-0.38,1.02-0.39l3.94-0.11
		c0.39-0.01,0.74,0.13,1.04,0.33c0.33-0.15,0.7-0.23,1.09-0.15l3.87,0.74c0.39,0.07,0.69,0.28,0.94,0.54
		c0.36-0.07,0.74-0.06,1.1,0.09l3.04,1.32l-1.86-1.1l-0.2-0.12c-0.26-0.15-0.44-0.36-0.59-0.6c-0.27,0.04-0.55,0.03-0.83-0.06
		c-0.01,0-0.01,0-0.02-0.01l-0.22-0.08l-3.06-1.06l-0.21-0.07c-0.29-0.1-0.51-0.28-0.71-0.49c-0.26,0.1-0.54,0.15-0.83,0.12
		c-0.01,0-0.01,0-0.02,0l-0.23-0.03l-3.23-0.44l-0.22-0.03c-0.31-0.04-0.57-0.18-0.8-0.35c-0.24,0.15-0.5,0.27-0.8,0.29
		c-0.01,0-0.01,0-0.02,0l-0.23,0.01l-3.26,0.2l-0.22,0.01c-0.32,0.02-0.6-0.07-0.87-0.2c-0.2,0.2-0.43,0.37-0.72,0.46
		c-0.01,0-0.01,0-0.02,0l-0.21,0.06l-3.15,0.85l-0.2,0.05c-0.31,0.08-0.62,0.05-0.9-0.03c-0.15,0.24-0.34,0.47-0.61,0.61
		c0,0-0.01,0.01-0.01,0.01l-0.19,0.09l-2.91,1.46l-0.18,0.09c-0.02,0.01-0.04,0.02-0.05,0.02l-1.66-2.62
		c0.07-0.05,0.14-0.1,0.21-0.14l3.25-1.68c0.38-0.2,0.81-0.23,1.2-0.13c0.2-0.34,0.53-0.61,0.95-0.73l3.54-1.01
		c0.42-0.12,0.84-0.06,1.21,0.11c0.28-0.29,0.66-0.49,1.09-0.52l3.69-0.29c0.43-0.03,0.83,0.11,1.16,0.34
		c0.34-0.22,0.75-0.34,1.18-0.29l3.67,0.45c0.43,0.05,0.79,0.27,1.06,0.55c0.38-0.14,0.8-0.18,1.21-0.04l3.51,1.16
		c0.41,0.14,0.72,0.41,0.93,0.74c0.4-0.06,0.82-0.01,1.2,0.2l1.11,0.64l-0.45-0.33l-0.16-0.12c-0.29-0.21-0.46-0.5-0.58-0.81
		c-0.33,0.04-0.66,0.02-0.98-0.12c-0.01,0-0.01-0.01-0.02-0.01l-0.18-0.09l-2.77-1.31l-0.17-0.08c-0.33-0.16-0.56-0.41-0.73-0.7
		c-0.31,0.11-0.65,0.15-1,0.07c-0.01,0-0.01,0-0.02,0l-0.19-0.05l-2.98-0.79l-0.18-0.05c-0.36-0.1-0.64-0.31-0.86-0.57
		c-0.29,0.17-0.62,0.28-0.98,0.26c-0.01,0-0.01,0-0.02,0l-0.19-0.01l-3.09-0.24l-0.18-0.01c-0.38-0.03-0.7-0.2-0.96-0.42
		c-0.25,0.23-0.55,0.4-0.92,0.44c-0.01,0-0.01,0-0.02,0l-0.19,0.02l-3.08,0.32l-0.18,0.02c-0.38,0.04-0.74-0.07-1.04-0.26
		c-0.2,0.28-0.46,0.51-0.82,0.62c-0.01,0-0.01,0-0.02,0l-0.18,0.05l-2.97,0.88l-0.17,0.05c-0.37,0.11-0.75,0.06-1.08-0.07
		c-0.13,0.31-0.35,0.6-0.68,0.77c-0.01,0-0.01,0.01-0.01,0.01l-0.16,0.08l-2.75,1.41l-0.15,0.08c-0.03,0.01-0.05,0.02-0.08,0.04
		l-1.6-2.53c0.07-0.05,0.13-0.1,0.21-0.14l3.03-1.6c0.43-0.23,0.92-0.22,1.35-0.05c0.17-0.42,0.5-0.77,0.97-0.91l3.29-1.03
		c0.47-0.15,0.95-0.06,1.34,0.17c0.26-0.37,0.65-0.64,1.14-0.7l3.44-0.41c0.48-0.06,0.93,0.1,1.28,0.38
		c0.33-0.3,0.77-0.48,1.26-0.45l3.46,0.22c0.48,0.03,0.9,0.25,1.18,0.58c0.38-0.22,0.85-0.31,1.32-0.19l3.36,0.84
		c0.46,0.12,0.83,0.4,1.06,0.76c0.42-0.14,0.9-0.13,1.33,0.07l3.14,1.43c0.43,0.2,0.73,0.54,0.9,0.94c0.41-0.05,0.82,0.05,1.19,0.27
		c-0.18-0.23-0.31-0.48-0.36-0.75c-0.38,0.05-0.77,0-1.13-0.2c-0.01,0-0.01-0.01-0.02-0.01l-0.15-0.09l-2.48-1.47l-0.14-0.08
		c-0.36-0.22-0.6-0.55-0.72-0.91c-0.37,0.12-0.77,0.14-1.16,0c-0.01,0-0.01,0-0.02-0.01l-0.16-0.06l-2.71-1.03l-0.15-0.06
		c-0.4-0.15-0.7-0.45-0.88-0.79c-0.34,0.19-0.74,0.28-1.15,0.2c-0.01,0-0.01,0-0.02,0l-0.16-0.03l-2.86-0.57l-0.15-0.03
		c-0.43-0.09-0.78-0.33-1.01-0.65c-0.3,0.25-0.68,0.41-1.1,0.41c-0.01,0-0.01,0-0.02,0l-0.16,0l-2.93-0.09l-0.16,0
		c-0.44-0.01-0.83-0.2-1.12-0.48c-0.24,0.31-0.59,0.53-1.02,0.6c-0.01,0-0.01,0-0.02,0l-0.16,0.02l-2.9,0.41l-0.15,0.02
		c-0.44,0.06-0.87-0.06-1.2-0.31c-0.17,0.36-0.48,0.65-0.9,0.79c0,0-0.01,0-0.02,0l-0.15,0.05l-2.79,0.89l-0.14,0.04
		c-0.44,0.14-0.89,0.06-1.26-0.15c-0.09,0.4-0.33,0.76-0.73,0.98c0,0-0.01,0-0.01,0.01l-0.13,0.07l-2.59,1.35l-0.12,0.06
		c-0.03,0.02-0.07,0.03-0.1,0.05l-1.54-2.43c0.06-0.05,0.13-0.1,0.21-0.14l2.81-1.52c0.49-0.26,1.05-0.22,1.5,0.04
		c0.1-0.5,0.45-0.94,0.98-1.12l3.05-1.03c0.52-0.18,1.06-0.05,1.47,0.26c0.21-0.46,0.62-0.82,1.17-0.91l3.19-0.5
		c0.54-0.08,1.05,0.12,1.4,0.48c0.3-0.4,0.77-0.68,1.32-0.67l3.24,0.05c0.55,0.01,1,0.29,1.3,0.68c0.38-0.33,0.88-0.51,1.42-0.42
		l3.18,0.58c0.53,0.1,0.93,0.44,1.16,0.86c0.43-0.25,0.96-0.33,1.47-0.15l3.03,1.1c0.5,0.18,0.84,0.57,1,1.02
		c0.47-0.16,1-0.14,1.46,0.12l2.22,1.27l-1.51-1.07l-0.12-0.08c-0.39-0.28-0.63-0.68-0.69-1.11c-0.41,0.14-0.88,0.12-1.31-0.08
		c-0.01,0-0.01-0.01-0.02-0.01l-0.13-0.07l-2.44-1.2l-0.13-0.06c-0.44-0.22-0.73-0.6-0.86-1.03c-0.39,0.22-0.86,0.3-1.33,0.16
		c0,0-0.01,0-0.02,0l-0.14-0.04l-2.62-0.8l-0.13-0.04c-0.49-0.15-0.83-0.51-1.01-0.93c-0.34,0.3-0.81,0.47-1.3,0.41
		c-0.01,0-0.01,0-0.02,0l-0.14-0.02l-2.72-0.39l-0.13-0.02c-0.52-0.07-0.92-0.4-1.16-0.81c-0.28,0.37-0.71,0.64-1.22,0.65
		c-0.01,0-0.01,0-0.02,0l-0.14,0l-2.75,0.04l-0.13,0c-0.54,0.01-1-0.27-1.29-0.66c-0.2,0.43-0.58,0.78-1.1,0.88c0,0-0.01,0-0.02,0
		l-0.13,0.02l-2.72,0.47l-0.13,0.02c-0.55,0.09-1.06-0.12-1.4-0.5c-0.1,0.48-0.42,0.91-0.93,1.09c-0.01,0-0.01,0-0.01,0l-0.12,0.04
		l-2.6,0.88l-0.12,0.04c-0.54,0.18-1.1,0.03-1.49-0.31c0.02,0.5-0.23,1-0.72,1.27c0,0-0.01,0-0.01,0.01l-0.11,0.06l-2.43,1.28
		l-0.1,0.05c-0.04,0.02-0.08,0.04-0.12,0.06l-1.48-2.34c0.06-0.05,0.13-0.1,0.2-0.14l2.61-1.43c0.57-0.31,1.25-0.2,1.7,0.21
		c-0.02-0.6,0.33-1.17,0.94-1.39l2.82-1.01c0.58-0.21,1.21-0.04,1.62,0.36c0.13-0.55,0.59-1.01,1.2-1.12l2.96-0.55
		c0.61-0.11,1.19,0.14,1.53,0.59c0.24-0.51,0.76-0.88,1.38-0.9l3.01-0.08c0.61-0.02,1.14,0.31,1.42,0.79
		c0.34-0.45,0.9-0.72,1.51-0.64l2.99,0.38c0.6,0.08,1.06,0.47,1.27,0.97c0.42-0.37,1.01-0.55,1.59-0.38l2.89,0.84
		c0.58,0.17,0.96,0.61,1.11,1.13c0.48-0.28,1.08-0.36,1.62-0.1l2.71,1.28c0.53,0.25,0.84,0.74,0.92,1.27
		c0.52-0.19,1.12-0.16,1.61,0.18l0.55,0.37l-0.2-0.17l-0.1-0.08c-0.44-0.36-0.61-0.88-0.58-1.39c-0.48,0.19-1.04,0.2-1.52-0.08
		c-0.01,0-0.01-0.01-0.02-0.01l-0.11-0.07l-2.18-1.29l-0.1-0.06c-0.5-0.3-0.75-0.81-0.77-1.33c-0.44,0.29-1.01,0.39-1.54,0.18
		c0,0-0.01,0-0.02-0.01l-0.12-0.05l-2.36-0.96l-0.11-0.04c-0.55-0.23-0.88-0.72-0.96-1.25c-0.39,0.38-0.94,0.58-1.52,0.45
		c0,0-0.01,0-0.02,0l-0.12-0.03l-2.49-0.61l-0.11-0.03c-0.6-0.15-1.01-0.6-1.14-1.14c-0.31,0.46-0.84,0.75-1.44,0.7
		c0,0-0.01,0-0.02,0l-0.12-0.01l-2.56-0.25l-0.11-0.01c-0.63-0.06-1.12-0.47-1.31-1.01c-0.21,0.52-0.71,0.91-1.32,0.95
		c0,0-0.01,0-0.02,0l-0.12,0.01l-2.57,0.13l-0.11,0.01c-0.67,0.03-1.25-0.37-1.47-0.95c-0.06,0.6-0.49,1.13-1.14,1.27
		c-0.01,0-0.01,0-0.01,0L88.6,99.9l-2.53,0.5l-0.1,0.02c-0.73,0.14-1.44-0.26-1.68-0.92c0.17,0.67-0.19,1.37-0.87,1.62
		c0,0-0.01,0-0.01,0.01l-0.1,0.04l-2.42,0.86l-0.1,0.03c-0.74,0.26-1.56-0.1-1.83-0.81c-0.27-0.7,0.1-1.49,0.82-1.76l2.6-0.97
		c0.74-0.28,1.57,0.07,1.86,0.78c-0.15-0.75,0.34-1.49,1.12-1.65l2.73-0.58c0.74-0.16,1.45,0.26,1.7,0.92
		c0.06-0.71,0.63-1.3,1.38-1.35l2.79-0.18c0.73-0.05,1.34,0.41,1.54,1.06c0.22-0.64,0.85-1.09,1.58-1.03l2.78,0.23
		c0.69,0.06,1.22,0.54,1.38,1.16c0.36-0.54,1.03-0.84,1.71-0.68l2.72,0.63c0.65,0.15,1.11,0.66,1.22,1.25
		c0.45-0.42,1.14-0.57,1.76-0.33l2.59,1.01c0.61,0.24,0.99,0.79,1.02,1.39c0.52-0.33,1.21-0.38,1.78-0.05l2.41,1.38
		c0.56,0.32,0.84,0.91,0.81,1.5c0.51-0.2,1.09-0.16,1.58,0.14c-0.34-0.42-0.44-0.95-0.29-1.44c-0.54,0.27-1.2,0.26-1.73-0.09
		c0,0-0.01-0.01-0.01-0.01l-0.09-0.06l-1.93-1.33l-0.09-0.06c-0.55-0.38-0.78-1.01-0.66-1.61c-0.49,0.37-1.16,0.47-1.75,0.18
		c0,0-0.01,0-0.01-0.01l-0.1-0.05l-2.11-1.06l-0.09-0.05c-0.63-0.32-0.94-0.98-0.84-1.63c-0.41,0.51-1.1,0.75-1.77,0.53
		c0,0-0.01,0-0.01,0l-0.1-0.03l-2.25-0.76l-0.09-0.03c-0.77-0.26-1.18-1.04-0.99-1.8c-0.22,0.73-0.97,1.21-1.76,1.07
		c-0.01,0-0.01,0-0.02,0l-0.1-0.02l-2.34-0.45l-0.09-0.02c-0.83-0.16-1.38-0.95-1.21-1.75c0.17-0.8,0.97-1.32,1.79-1.17l2.53,0.45
		c0.82,0.15,1.37,0.89,1.25,1.69c0.31-0.75,1.17-1.14,1.97-0.88l2.44,0.79c0.76,0.25,1.18,0.99,1.04,1.73
		c0.46-0.61,1.31-0.85,2.03-0.5l2.31,1.11c0.69,0.33,1,1.07,0.84,1.76c0.57-0.47,1.39-0.55,2.03-0.12l2.12,1.42
		c0.61,0.41,0.84,1.12,0.65,1.77c0.46-0.23,0.98-0.25,1.45-0.05c-0.3-0.56-0.24-1.23,0.17-1.74c-0.6,0.53-1.5,0.6-2.16,0.1
		c0,0-0.01-0.01-0.01-0.01l-0.08-0.06l-1.7-1.33L117,98.53c-0.71-0.56-0.82-1.57-0.24-2.25c0.57-0.68,1.61-0.78,2.32-0.24l0.72,0.55
		l-0.53-0.46l-0.06-0.05c-0.67-0.59-0.72-1.59-0.1-2.24c0.58-0.61,1.52-0.66,2.19-0.18c-0.56-0.62-0.55-1.56,0.07-2.15
		c0.53-0.5,1.31-0.56,1.92-0.24c-0.43-0.63-0.36-1.48,0.24-2c0.48-0.42,1.15-0.5,1.71-0.27c-0.34-0.63-0.23-1.42,0.37-1.89
		c0.46-0.37,1.06-0.42,1.58-0.24c-0.3-0.64-0.15-1.4,0.45-1.85c0.43-0.32,0.97-0.37,1.45-0.22c-0.28-0.64-0.11-1.4,0.5-1.82
		c0.4-0.28,0.89-0.33,1.33-0.21c-0.26-0.64-0.07-1.39,0.55-1.8c0.38-0.24,0.82-0.3,1.23-0.21c-0.25-0.65-0.03-1.39,0.6-1.78
		c0.72-0.44,1.67-0.24,2.14,0.44l0.38,0.56c0.47,0.69,0.27,1.63-0.45,2.08c-0.34,0.22-0.74,0.28-1.12,0.22
		c0.33,0.66,0.15,1.46-0.49,1.89c-0.36,0.24-0.79,0.32-1.19,0.24c0.32,0.65,0.16,1.43-0.46,1.87c-0.38,0.27-0.85,0.34-1.28,0.25
		c0.34,0.64,0.2,1.43-0.4,1.9c-0.41,0.31-0.92,0.38-1.39,0.26c0.34,0.63,0.24,1.42-0.35,1.9c-0.43,0.36-0.99,0.43-1.5,0.29
		c0.37,0.62,0.3,1.42-0.27,1.93c-0.46,0.41-1.09,0.5-1.64,0.32c0.39,0.61,0.34,1.4-0.2,1.93c-0.48,0.47-1.18,0.59-1.78,0.37
		c0.41,0.59,0.4,1.38-0.11,1.93c-0.54,0.58-1.4,0.67-2.07,0.29c0.52,0.55,0.6,1.35,0.16,1.97c0.46-0.36,1.06-0.45,1.59-0.28
		c-0.28-0.64-0.14-1.4,0.44-1.87c0.44-0.36,1.01-0.44,1.53-0.3c-0.24-0.64-0.06-1.38,0.53-1.82c0.41-0.3,0.91-0.38,1.38-0.28
		c-0.21-0.64,0-1.36,0.6-1.78c0.37-0.26,0.82-0.34,1.24-0.28c-0.19-0.64,0.05-1.35,0.66-1.74c0.35-0.23,0.76-0.29,1.15-0.24
		c-0.17-0.65,0.08-1.35,0.7-1.72c0.33-0.2,0.7-0.24,1.06-0.2c-0.18-0.66,0.08-1.38,0.72-1.74c0.31-0.18,0.65-0.21,0.99-0.18
		c-0.17-0.66,0.1-1.38,0.76-1.72c0.29-0.15,0.61-0.18,0.92-0.16c-0.18-0.67,0.11-1.4,0.78-1.73c0.77-0.39,1.73-0.1,2.14,0.64
		l0.33,0.59c0.41,0.75,0.12,1.68-0.66,2.08c-0.26,0.13-0.54,0.16-0.81,0.15c0.28,0.71,0.02,1.52-0.68,1.9
		c-0.27,0.15-0.57,0.19-0.87,0.17c0.27,0.69,0.02,1.49-0.66,1.88c-0.29,0.17-0.61,0.21-0.92,0.19c0.27,0.68,0.04,1.47-0.62,1.88
		c-0.31,0.19-0.66,0.24-1,0.22c0.24,0.67,0.04,1.43-0.6,1.84c-0.33,0.22-0.71,0.28-1.07,0.25c0.25,0.66,0.07,1.42-0.55,1.85
		c-0.35,0.25-0.76,0.33-1.16,0.3c0.25,0.64,0.08,1.39-0.5,1.84c-0.37,0.28-0.82,0.39-1.25,0.34c0.24,0.62,0.09,1.35-0.46,1.81
		c-0.4,0.33-0.9,0.44-1.39,0.36c0.23,0.53,0.14,1.14-0.22,1.61c0.29-0.14,0.61-0.2,0.92-0.18c-0.14-0.65,0.13-1.35,0.74-1.73
		c0.33-0.21,0.7-0.26,1.06-0.24c-0.14-0.66,0.15-1.37,0.78-1.74c0.3-0.18,0.63-0.22,0.96-0.21c-0.13-0.67,0.17-1.37,0.82-1.72
		c0.28-0.15,0.58-0.19,0.88-0.18c-0.12-0.68,0.19-1.38,0.86-1.72c0.26-0.13,0.53-0.17,0.81-0.16c-0.11-0.68,0.22-1.37,0.89-1.69
		c0.24-0.11,0.48-0.15,0.73-0.15c-0.12-0.69,0.22-1.4,0.91-1.7c0.22-0.1,0.45-0.14,0.67-0.14c-0.11-0.69,0.24-1.4,0.94-1.69
		c0.2-0.08,0.41-0.12,0.61-0.13c-0.12-0.7,0.24-1.42,0.95-1.7c0.82-0.32,1.76,0.05,2.11,0.84l0.27,0.62
		c0.35,0.8-0.04,1.71-0.86,2.05c-0.17,0.07-0.35,0.09-0.52,0.1c0.24,0.75-0.1,1.58-0.87,1.91c-0.18,0.08-0.37,0.11-0.56,0.12
		c0.22,0.74-0.11,1.54-0.85,1.88c-0.2,0.09-0.4,0.13-0.61,0.15c0.21,0.73-0.1,1.52-0.83,1.87c-0.21,0.1-0.44,0.16-0.66,0.17
		c0.19,0.71-0.11,1.47-0.81,1.84c-0.23,0.12-0.47,0.17-0.72,0.18c0.2,0.71-0.08,1.47-0.77,1.85c-0.25,0.14-0.52,0.19-0.78,0.2
		c0.2,0.69-0.07,1.45-0.73,1.85c-0.27,0.16-0.56,0.22-0.86,0.22c0.2,0.68-0.05,1.43-0.69,1.84c-0.29,0.19-0.62,0.25-0.95,0.26
		c0.07,0.24,0.09,0.49,0.05,0.73c0.15-0.41,0.46-0.77,0.89-0.98c0.21-0.1,0.44-0.15,0.66-0.17c-0.07-0.7,0.3-1.38,1-1.69
		c0.19-0.08,0.39-0.12,0.59-0.13c-0.07-0.71,0.31-1.41,1.03-1.7c0.17-0.07,0.35-0.09,0.53-0.1c-0.08-0.72,0.31-1.43,1.05-1.71
		c0.16-0.06,0.32-0.07,0.48-0.08c-0.08-0.72,0.33-1.43,1.07-1.7c0.14-0.05,0.28-0.05,0.42-0.06c-0.09-0.74,0.32-1.48,1.09-1.73
		c0.12-0.04,0.25-0.04,0.37-0.05c-0.1-0.75,0.33-1.49,1.11-1.73c0.11-0.03,0.22-0.03,0.33-0.04c-0.11-0.76,0.33-1.51,1.12-1.75
		c0.87-0.26,1.78,0.21,2.06,1.04l0.22,0.65c0.28,0.84-0.2,1.73-1.07,2c-0.08,0.03-0.17,0.01-0.25,0.03
		c0.23,0.82-0.22,1.67-1.06,1.95c-0.09,0.03-0.19,0.02-0.28,0.03c0.22,0.81-0.21,1.65-1.04,1.94c-0.1,0.04-0.21,0.03-0.31,0.04
		c0.21,0.8-0.2,1.64-1.02,1.94c-0.12,0.04-0.24,0.04-0.36,0.06c0.18,0.78-0.21,1.59-1,1.9c-0.13,0.05-0.27,0.05-0.4,0.07
		c0.07,0.3,0.07,0.59-0.02,0.87c0.18-0.14,0.4-0.26,0.64-0.32c0.05-0.01,0.1,0,0.15-0.01c-0.05-0.78,0.45-1.52,1.27-1.72
		c0.04-0.01,0.07,0,0.11-0.01c-0.07-0.8,0.44-1.56,1.28-1.75c0.03-0.01,0.05,0,0.08,0c-0.07-0.8,0.45-1.56,1.29-1.74
		c0.02,0,0.03,0,0.05,0c-0.08-0.81,0.45-1.57,1.3-1.74c0.9-0.18,1.79,0.37,1.98,1.24l0.15,0.66c0.2,0.87-0.37,1.72-1.26,1.92l0,0
		c0.21,0.88-0.35,1.76-1.27,1.97c0.2,0.87-0.35,1.74-1.26,1.96c-0.01,0-0.01,0-0.02,0c0.09,0.42,0.03,0.85-0.19,1.19
		c0.07-0.03,0.13-0.05,0.2-0.07c-0.08-0.81,0.47-1.52,1.27-1.73c-0.1-0.9,0.57-1.7,1.5-1.81c0.93-0.1,1.77,0.54,1.89,1.43l0.09,0.67
		c0.11,0.81-0.44,1.53-1.23,1.76l0.02,0.17c0.08,0.59-0.19,1.13-0.64,1.49c0.15-0.05,0.3-0.1,0.47-0.1c0.95-0.02,1.75,0.7,1.78,1.62
		l0.02,0.67c0.03,0.76-0.48,1.39-1.18,1.62l0.01,0.31c0.02,0.48-0.17,0.91-0.49,1.23C145.32,115.01,145.99,115.68,146.05,116.5z
		 M112.73,141.8c-0.07-0.03-0.13-0.06-0.2-0.09c0.05,0.03,0.09,0.06,0.14,0.08C112.7,141.79,112.71,141.8,112.73,141.8z
		 M113.73,133.82c-0.03-0.04-0.08-0.07-0.11-0.11c-0.06-0.01-0.12-0.02-0.18-0.03c0.02,0.01,0.04,0.01,0.06,0.02
		C113.58,133.74,113.65,133.79,113.73,133.82z M56.96,64.13l0.01-0.01l0.79-0.36l0.02-0.01c0,0,0.01,0,0.01,0
		c0.47-0.22,0.66-0.76,0.43-1.21c-0.23-0.45-0.79-0.63-1.26-0.41l-0.8,0.38c-0.46,0.22-0.65,0.75-0.43,1.19
		C55.94,64.15,56.5,64.34,56.96,64.13z M59.46,57.78l0.63-0.23c0,0,0.02-0.01,0.02-0.01c0.48-0.18,0.71-0.7,0.53-1.16
		c-0.19-0.46-0.72-0.69-1.2-0.51l-0.64,0.24c-0.47,0.18-0.71,0.69-0.53,1.15C58.45,57.73,58.99,57.96,59.46,57.78z M104.72,69.66
		c-0.29,0.68,0.04,1.46,0.74,1.74l0.03,0.01l1.15,0.46l0.04,0.01c0,0,0.01,0,0.01,0.01c0.71,0.28,1.52-0.06,1.81-0.75
		c0.29-0.69-0.06-1.47-0.77-1.74l-1.22-0.47C105.81,68.67,105.02,68.99,104.72,69.66z M87.91,60.86l-1.1-0.05
		c-0.65-0.03-1.21,0.45-1.25,1.08c-0.04,0.64,0.46,1.18,1.13,1.22l0.02,0l1.06,0.06l0.03,0c0,0,0.01,0,0.01,0
		c0.67,0.03,1.23-0.47,1.26-1.11C89.09,61.44,88.57,60.89,87.91,60.86z M95.31,65.98c-0.7-0.12-1.36,0.32-1.5,0.99
		c-0.14,0.68,0.32,1.33,1.03,1.46l0.03,0.01l1.23,0.23l0.04,0.01c0,0,0.01,0,0.01,0c0.71,0.12,1.39-0.33,1.52-1.02
		c0.13-0.68-0.35-1.34-1.06-1.46L95.31,65.98z M99.36,62.56l-1.07-0.25c-0.68-0.16-1.37,0.23-1.55,0.89
		c-0.18,0.66,0.23,1.34,0.92,1.51l0.02,0.01l1.02,0.26l0.03,0.01c0,0,0.01,0,0.01,0c0.69,0.16,1.39-0.24,1.56-0.91
		C100.48,63.4,100.06,62.72,99.36,62.56z M102.8,74.69l1.36,0.46l0.04,0.01c0,0,0.01,0,0.01,0c0.74,0.24,1.53-0.15,1.78-0.86
		c0.24-0.71-0.16-1.48-0.89-1.71l-1.44-0.46c-0.72-0.23-1.5,0.14-1.75,0.83c-0.25,0.7,0.13,1.47,0.86,1.71L102.8,74.69z
		 M97.43,73.27l0.04,0.01l1.41,0.31l0.04,0.01c0,0,0.01,0,0.01,0c0.74,0.15,1.46-0.3,1.62-1.01c0.16-0.71-0.31-1.41-1.04-1.56
		l-1.48-0.31c-0.72-0.15-1.43,0.28-1.6,0.98C96.25,72.41,96.7,73.11,97.43,73.27z M123.96,74.87l0.02,0.02l0.61,0.59l0.02,0.02
		c0,0,0.01,0.01,0.01,0.01c0.59,0.55,1.53,0.54,2.11-0.02c0.57-0.57,0.56-1.48-0.03-2.03l-0.65-0.61c-0.58-0.54-1.51-0.54-2.08,0.01
		C123.38,73.41,123.38,74.31,123.96,74.87z M83.73,65.28c-0.66,0.02-1.18,0.54-1.18,1.18c0.01,0.64,0.56,1.16,1.23,1.15l0.03,0
		l1.25-0.02l0.04,0c0,0,0.01,0,0.01,0c0.67-0.02,1.2-0.56,1.18-1.21c-0.02-0.65-0.58-1.16-1.25-1.14L83.73,65.28z M89.54,65.35
		c-0.68-0.05-1.28,0.44-1.34,1.1c-0.06,0.66,0.45,1.25,1.14,1.31l0.03,0l1.25,0.11l0.04,0c0,0,0.01,0,0.01,0
		c0.7,0.05,1.3-0.45,1.35-1.12c0.05-0.67-0.47-1.25-1.17-1.3L89.54,65.35z M93.47,75.64c-0.12,0.72,0.39,1.39,1.14,1.5l0.05,0.01
		l1.62,0.24l0.05,0.01c0,0,0.01,0,0.01,0c0.75,0.1,1.45-0.4,1.56-1.13c0.11-0.72-0.42-1.4-1.17-1.5l-1.71-0.23
		C94.27,74.44,93.59,74.93,93.47,75.64z M99.34,68.05c-0.21,0.68,0.19,1.4,0.89,1.61l0.03,0.01l1.2,0.35l0.04,0.01
		c0,0,0.01,0,0.01,0c0.72,0.2,1.46-0.2,1.67-0.89c0.21-0.69-0.21-1.41-0.93-1.61l-1.26-0.35C100.29,66.99,99.55,67.37,99.34,68.05z
		 M104.91,64.21l-1.04-0.35c-0.68-0.23-1.43,0.11-1.69,0.76c-0.25,0.66,0.1,1.4,0.78,1.64l0.02,0.01l0.99,0.35l0.03,0.01
		c0,0,0.01,0,0.01,0c0.69,0.24,1.46-0.11,1.7-0.78C105.97,65.18,105.61,64.45,104.91,64.21z M93.77,70.07l-1.51-0.15
		c-0.71-0.07-1.35,0.42-1.44,1.1c-0.09,0.69,0.42,1.32,1.14,1.4l0.04,0l1.43,0.17l0.04,0c0,0,0.01,0,0.01,0
		c0.72,0.07,1.37-0.43,1.45-1.13C95.02,70.77,94.5,70.15,93.77,70.07z M87.96,69.7l-1.52,0c-0.69,0-1.25,0.54-1.26,1.2
		c-0.01,0.67,0.55,1.23,1.25,1.23h0.04l1.45,0.02l0.04,0c0,0,0.01,0,0.01,0c0.7,0,1.28-0.55,1.27-1.23
		C89.24,70.25,88.67,69.7,87.96,69.7z M87.84,75.38c-0.03,0.7,0.53,1.29,1.26,1.33l0.04,0l1.64,0.07l0.05,0c0,0,0.01,0,0.01,0
		c0.74,0.02,1.35-0.54,1.37-1.25c0.02-0.71-0.56-1.3-1.3-1.32l-1.73-0.05C88.47,74.14,87.87,74.68,87.84,75.38z M83.37,74.42
		c-0.69,0.06-1.21,0.64-1.17,1.31c0.05,0.68,0.66,1.19,1.36,1.14l0.04,0l1.63-0.11l0.05,0c0,0,0.01,0,0.01,0
		c0.71-0.06,1.24-0.66,1.18-1.34c-0.06-0.68-0.69-1.19-1.4-1.13L83.37,74.42z M79.25,65.63l-1.29,0.17
		c-0.63,0.08-1.08,0.64-1.01,1.25c0.08,0.62,0.66,1.06,1.3,0.99l0.03,0l1.24-0.14l0.03,0c0,0,0.01,0,0.01,0
		c0.64-0.08,1.1-0.65,1.01-1.27C80.49,65.99,79.89,65.55,79.25,65.63z M107.56,93.3l0.08,0.03l2.01,0.86l0.08,0.04
		c0.01,0,0.01,0,0.01,0.01c0.81,0.33,1.74-0.03,2.09-0.81c0.34-0.78-0.03-1.68-0.84-2.01l-2.18-0.89c-0.79-0.32-1.71,0.02-2.05,0.78
		C106.41,92.06,106.77,92.96,107.56,93.3z M107.11,88.9c0,0,0.01,0,0.01,0.01c0.8,0.28,1.68-0.12,1.96-0.89
		c0.29-0.77-0.12-1.61-0.92-1.89l-2.02-0.7c-0.78-0.27-1.64,0.11-1.94,0.86c-0.3,0.75,0.1,1.6,0.88,1.88l0.07,0.02l1.88,0.69
		L107.11,88.9z M102.37,91.63l0.08,0.02l2.11,0.6l0.09,0.02c0,0,0.01,0,0.01,0c0.82,0.22,1.68-0.25,1.9-1.04
		c0.23-0.79-0.26-1.62-1.08-1.83l-2.28-0.61c-0.8-0.21-1.64,0.23-1.88,1.01C101.1,90.58,101.56,91.4,102.37,91.63z M123.01,88.77
		c0.57-0.64,0.49-1.61-0.18-2.16l-1.32-1.08c-0.65-0.54-1.64-0.47-2.21,0.15c-0.58,0.63-0.51,1.59,0.14,2.14l0.04,0.03l1.22,1.04
		l0.05,0.04c0,0,0.01,0.01,0.01,0.01C121.43,89.49,122.44,89.41,123.01,88.77z M112.47,95.61l0.08,0.04l1.87,1.11l0.08,0.05
		c0,0,0.01,0.01,0.01,0.01c0.78,0.44,1.78,0.2,2.24-0.55c0.46-0.75,0.21-1.71-0.57-2.16l-2.04-1.16c-0.76-0.43-1.74-0.2-2.2,0.52
		C111.47,94.2,111.7,95.16,112.47,95.61z M101.9,87.22c0.01,0,0.01,0,0.01,0c0.8,0.17,1.6-0.31,1.78-1.08
		c0.18-0.77-0.32-1.54-1.13-1.72l-2.1-0.46c-0.78-0.17-1.57,0.3-1.76,1.05c-0.19,0.76,0.29,1.53,1.09,1.71l0.07,0.02l1.96,0.46
		L101.9,87.22z M118.91,93.67c0.5-0.71,0.31-1.68-0.43-2.17l-1.78-1.17c-0.72-0.47-1.71-0.3-2.21,0.39
		c-0.51,0.7-0.34,1.66,0.39,2.15l0.06,0.04l1.64,1.11l0.07,0.05c0,0,0.01,0.01,0.01,0.01C117.39,94.57,118.4,94.38,118.91,93.67z
		 M120.99,91.18c0.54-0.68,0.41-1.65-0.29-2.17l-1.54-1.14c-0.69-0.51-1.68-0.39-2.22,0.26c-0.55,0.66-0.43,1.63,0.26,2.15
		l0.05,0.04l1.42,1.09l0.06,0.04c0,0,0.01,0.01,0.01,0.01C119.44,91.98,120.45,91.86,120.99,91.18z M83.33,96.12l0.09-0.02
		l2.33-0.52l0.09-0.02c0,0,0.01,0,0.01,0c0.77-0.18,1.24-0.93,1.05-1.67c-0.19-0.74-0.97-1.19-1.73-1.01l-2.5,0.59
		c-0.75,0.18-1.21,0.9-1.04,1.63C81.81,95.83,82.57,96.29,83.33,96.12z M88.4,90.47c0,0,0.01,0,0.01,0c0.78-0.1,1.32-0.78,1.22-1.53
		c-0.1-0.75-0.81-1.28-1.59-1.18l-2.33,0.29c-0.76,0.1-1.3,0.76-1.21,1.49c0.09,0.74,0.78,1.27,1.55,1.19l0.08-0.01l2.18-0.24
		L88.4,90.47z M99.34,90.98c0,0,0.01,0,0.01,0c0.82,0.11,1.58-0.44,1.7-1.24c0.11-0.79-0.46-1.52-1.29-1.63l-2.34-0.31
		c-0.8-0.11-1.55,0.43-1.67,1.2c-0.12,0.78,0.43,1.51,1.24,1.63l0.08,0.01l2.18,0.32L99.34,90.98z M82.97,91.27c0,0,0.01,0,0.01,0
		c0.73-0.19,1.17-0.92,0.97-1.62c-0.2-0.71-0.95-1.12-1.69-0.93L80,89.3c-0.71,0.19-1.14,0.89-0.96,1.58
		c0.18,0.7,0.92,1.12,1.65,0.95l0.07-0.02l2.14-0.52L82.97,91.27z M88.7,95.13l0.09-0.01l2.38-0.19l0.1-0.01c0,0,0.01,0,0.01,0
		c0.81-0.08,1.4-0.77,1.32-1.56c-0.08-0.78-0.8-1.35-1.62-1.27l-2.56,0.25c-0.79,0.08-1.37,0.75-1.31,1.51
		C87.19,94.62,87.9,95.2,88.7,95.13z M94.16,94.88l0.09,0l2.38,0.13l0.1,0.01c0.01,0,0.01,0,0.02,0c0.84,0.03,1.55-0.59,1.58-1.4
		c0.04-0.81-0.62-1.49-1.45-1.52L94.31,92c-0.82-0.03-1.51,0.57-1.56,1.36C92.7,94.15,93.33,94.84,94.16,94.88z M93.89,90.37
		c0,0,0.01,0,0.01,0c0.81,0,1.46-0.62,1.47-1.4c0-0.78-0.65-1.41-1.45-1.41l-2.36-0.01c-0.79,0-1.43,0.6-1.45,1.36
		c-0.02,0.77,0.62,1.4,1.42,1.42l0.08,0l2.2,0.04L93.89,90.37z M64.15,82.63C64.15,82.63,64.16,82.63,64.15,82.63
		c0.54-0.31,0.71-0.97,0.39-1.48c-0.32-0.51-1-0.68-1.54-0.37l-1.47,0.85c-0.07,0.04-0.13,0.08-0.18,0.13l1.13,1.78
		c0.06-0.02,0.12-0.04,0.17-0.08l0.03-0.02l1.42-0.79L64.15,82.63z M66.99,86.73C66.99,86.73,67,86.73,66.99,86.73
		c0.57-0.33,0.75-1.02,0.42-1.56c-0.33-0.54-1.05-0.71-1.61-0.39l-1.66,0.95c-0.07,0.04-0.13,0.08-0.18,0.13l1.19,1.87
		c0.06-0.02,0.11-0.04,0.17-0.07l0.04-0.02l1.59-0.88L66.99,86.73z M78.15,97.84l0.08-0.03l2.24-0.83l0.09-0.03c0,0,0.01,0,0.01,0
		c0.71-0.28,1.05-1.06,0.77-1.74s-1.1-1.01-1.81-0.74l-2.38,0.93c-0.69,0.27-1.03,1.03-0.76,1.7
		C76.65,97.77,77.44,98.11,78.15,97.84z M69.83,90.83c0,0,0.01,0,0.01-0.01c0.59-0.33,0.78-1.06,0.43-1.62
		c-0.35-0.56-1.1-0.75-1.69-0.42l-1.84,1.05c-0.07,0.04-0.13,0.08-0.19,0.13l1.24,1.96c0.06-0.02,0.11-0.04,0.16-0.07l0.05-0.03
		l1.76-0.97L69.83,90.83z M75.51,99.04c0,0,0.01,0,0.01-0.01c0.64-0.36,0.86-1.15,0.49-1.77c-0.37-0.62-1.2-0.83-1.84-0.47
		l-2.22,1.24c-0.07,0.04-0.13,0.09-0.19,0.13l1.36,2.15c0.05-0.02,0.1-0.04,0.14-0.07l0.07-0.04l2.09-1.13L75.51,99.04z
		 M72.67,94.94c0,0,0.01,0,0.01-0.01c0.61-0.35,0.82-1.11,0.46-1.7c-0.36-0.59-1.15-0.79-1.76-0.44l-2.03,1.14
		c-0.07,0.04-0.13,0.08-0.19,0.13l1.3,2.05c0.05-0.02,0.11-0.04,0.16-0.07l0.06-0.03l1.93-1.05L72.67,94.94z M78.35,103.15
		c0,0,0.01,0,0.01-0.01c0.67-0.37,0.9-1.2,0.52-1.84c-0.39-0.65-1.24-0.87-1.91-0.5l-2.41,1.33c-0.07,0.04-0.14,0.09-0.2,0.13
		l1.42,2.24c0.05-0.02,0.09-0.04,0.13-0.06l0.09-0.05l2.26-1.21L78.35,103.15z M126.03,72.64l0.45,0.47l0.02,0.02
		c0,0,0.01,0.01,0.01,0.01c0.56,0.57,1.5,0.59,2.09,0.05c0.59-0.54,0.61-1.44,0.05-2.01l-0.48-0.49c-0.55-0.56-1.47-0.59-2.06-0.06
		c-0.6,0.53-0.63,1.43-0.08,2L126.03,72.64z M61.69,77.12c-0.3-0.48-0.96-0.64-1.46-0.35l-1.29,0.75c-0.06,0.04-0.12,0.08-0.17,0.13
		l1.07,1.69c0.06-0.02,0.12-0.05,0.18-0.08l0.03-0.01l1.26-0.71l0.03-0.02c0,0,0.01,0,0.01-0.01
		C61.83,78.24,61.99,77.61,61.69,77.12z M58.83,73.1c-0.29-0.46-0.91-0.6-1.38-0.33l-1.12,0.65c-0.06,0.04-0.12,0.08-0.17,0.13
		l1.01,1.6c0.06-0.02,0.12-0.05,0.18-0.08l0.02-0.01l1.09-0.61l0.02-0.01c0,0,0.01,0,0.01,0C58.96,74.15,59.12,73.56,58.83,73.1z
		 M49.11,60.77l-0.59,0.35c-0.06,0.04-0.11,0.08-0.16,0.13l0.84,1.33c0.07-0.02,0.13-0.04,0.19-0.08l0.58-0.33
		c0,0,0.02-0.01,0.02-0.01c0.4-0.23,0.52-0.73,0.28-1.12C50.02,60.65,49.5,60.53,49.11,60.77z M81.34,53.97h0.01l0.66,0.01h0.02
		c0,0,0.01,0,0.01,0c0.61,0,1.09-0.48,1.09-1.06c0-0.58-0.5-1.05-1.1-1.05l-0.69,0c-0.59,0-1.08,0.47-1.08,1.04
		C80.26,53.49,80.74,53.96,81.34,53.97z M54.32,59.92l0.61-0.28c0,0,0.02-0.01,0.02-0.01c0.44-0.21,0.62-0.72,0.4-1.14
		c-0.22-0.42-0.75-0.59-1.19-0.38l-0.62,0.3c-0.43,0.21-0.61,0.72-0.4,1.13C53.36,59.95,53.88,60.12,54.32,59.92z M54.66,68.77
		l-0.94,0.55c-0.06,0.04-0.12,0.08-0.17,0.13l0.96,1.51c0.06-0.02,0.12-0.05,0.18-0.08l0.02-0.01l0.92-0.52l0.02-0.01
		c0,0,0,0,0.01,0c0.45-0.26,0.59-0.83,0.32-1.26C55.7,68.64,55.11,68.51,54.66,68.77z M51.88,64.77l-0.76,0.45
		c-0.06,0.04-0.11,0.08-0.16,0.13l0.9,1.42c0.06-0.02,0.12-0.04,0.18-0.08l0.01-0.01l0.75-0.43l0.02-0.01c0,0,0,0,0.01,0
		c0.42-0.25,0.55-0.78,0.3-1.19C52.86,64.65,52.31,64.52,51.88,64.77z M75.51,93.62l0.07-0.03l2.05-0.8l0.07-0.03c0,0,0.01,0,0.01,0
		c0.68-0.27,1-1.03,0.71-1.68c-0.28-0.65-1.07-0.96-1.74-0.69l-2.17,0.88c-0.66,0.27-0.98,1-0.71,1.64
		C74.07,93.56,74.83,93.88,75.51,93.62z M94.12,58.39c-0.15,0.64,0.27,1.27,0.93,1.42l0.02,0l0.84,0.18L95.94,60c0,0,0.01,0,0.01,0
		c0.67,0.14,1.32-0.28,1.46-0.92c0.14-0.64-0.29-1.27-0.96-1.41l-0.88-0.18C94.92,57.36,94.27,57.76,94.12,58.39z M97.85,56.18
		l0.01,0l0.64,0.18l0.02,0c0,0,0.01,0,0.01,0c0.65,0.17,1.32-0.2,1.5-0.83c0.18-0.63-0.21-1.27-0.86-1.44l-0.67-0.17
		c-0.64-0.17-1.31,0.19-1.49,0.81C96.83,55.35,97.2,56,97.85,56.18z M99.61,59.64c-0.22,0.64,0.15,1.33,0.81,1.54l0.02,0.01
		l0.82,0.26l0.02,0.01c0,0,0.01,0,0.01,0c0.67,0.2,1.39-0.16,1.6-0.81c0.21-0.65-0.17-1.34-0.84-1.54l-0.86-0.26
		C100.54,58.66,99.83,59.01,99.61,59.64z M88.54,57.64c-0.08,0.63,0.38,1.2,1.03,1.28l0.02,0l0.86,0.11l0.02,0c0,0,0.01,0,0.01,0
		c0.66,0.07,1.25-0.38,1.32-1.01c0.07-0.63-0.4-1.2-1.05-1.27l-0.89-0.1C89.21,56.58,88.62,57.02,88.54,57.64z M86.91,54.22l0.01,0
		l0.65,0.06l0.02,0c0,0,0.01,0,0.01,0c0.63,0.05,1.18-0.4,1.23-1c0.05-0.6-0.41-1.13-1.04-1.18l-0.68-0.06
		c-0.62-0.05-1.16,0.39-1.22,0.98C85.83,53.63,86.29,54.17,86.91,54.22z M92.42,54.96l0.01,0l0.66,0.12l0.02,0c0,0,0.01,0,0.01,0
		c0.64,0.11,1.25-0.3,1.37-0.92c0.11-0.62-0.32-1.21-0.96-1.32l-0.68-0.12c-0.63-0.11-1.24,0.29-1.36,0.9
		C91.36,54.25,91.78,54.85,92.42,54.96z M103.13,57.86l0.01,0l0.62,0.23l0.02,0.01c0,0,0.01,0,0.01,0c0.65,0.23,1.38-0.09,1.63-0.72
		c0.24-0.63-0.09-1.33-0.75-1.57l-0.65-0.23c-0.64-0.23-1.36,0.08-1.61,0.7C102.16,56.91,102.48,57.62,103.13,57.86z M110.11,63.59
		c-0.36,0.63-0.12,1.43,0.53,1.78l0.02,0.01l0.76,0.4l0.02,0.01c0,0,0.01,0,0.01,0.01c0.67,0.34,1.49,0.1,1.84-0.54
		c0.35-0.64,0.1-1.44-0.56-1.78l-0.8-0.41C111.28,62.73,110.46,62.96,110.11,63.59z M104.95,61.38c-0.29,0.64,0.02,1.39,0.68,1.67
		l0.02,0.01l0.79,0.33l0.02,0.01c0,0,0.01,0,0.01,0c0.67,0.27,1.45-0.04,1.73-0.69c0.28-0.65-0.04-1.39-0.71-1.66l-0.83-0.33
		C106,60.45,105.24,60.74,104.95,61.38z M119.84,71.3l0.02,0.01l0.66,0.53l0.02,0.02c0,0,0.01,0.01,0.01,0.01
		c0.62,0.48,1.54,0.39,2.04-0.21c0.5-0.6,0.4-1.48-0.22-1.96l-0.7-0.55c-0.61-0.47-1.51-0.39-2.01,0.19
		C119.15,69.94,119.23,70.81,119.84,71.3z M115.02,66.25c-0.44,0.62-0.27,1.45,0.37,1.87l0.02,0.01l0.71,0.47l0.02,0.02
		c0,0,0.01,0,0.01,0.01c0.65,0.41,1.52,0.24,1.95-0.38c0.43-0.62,0.25-1.46-0.4-1.88l-0.75-0.48
		C116.31,65.48,115.45,65.64,115.02,66.25z M117.73,65.53l0.01,0.01l0.53,0.38l0.02,0.01c0,0,0.01,0,0.01,0.01
		c0.62,0.43,1.49,0.3,1.94-0.3c0.45-0.6,0.31-1.44-0.31-1.87l-0.56-0.39c-0.61-0.43-1.47-0.3-1.92,0.28
		C116.99,64.25,117.12,65.09,117.73,65.53z M108.24,59.99l0.01,0.01l0.6,0.29l0.02,0.01c0,0,0.01,0,0.01,0.01
		c0.65,0.3,1.43,0.03,1.74-0.6c0.31-0.63,0.03-1.38-0.62-1.68l-0.63-0.29c-0.64-0.29-1.41-0.04-1.73,0.58
		C107.33,58.93,107.59,59.68,108.24,59.99z M84.01,58.53l0.02,0l0.86,0.03l0.02,0c0,0,0.01,0,0.01,0c0.64,0.01,1.16-0.48,1.17-1.09
		c0.01-0.61-0.49-1.12-1.13-1.13l-0.9-0.02c-0.62-0.01-1.15,0.46-1.17,1.07C82.88,58,83.38,58.51,84.01,58.53z M113.12,62.55
		l0.01,0.01l0.57,0.34l0.02,0.01c0,0,0.01,0,0.01,0.01c0.64,0.37,1.47,0.16,1.85-0.45c0.38-0.62,0.17-1.42-0.47-1.78l-0.6-0.34
		c-0.63-0.36-1.45-0.17-1.83,0.44C112.29,61.38,112.48,62.18,113.12,62.55z M122.05,68.9l0.49,0.43l0.02,0.01
		c0,0,0.01,0.01,0.01,0.01c0.6,0.5,1.5,0.44,2.02-0.13c0.52-0.57,0.46-1.45-0.14-1.95l-0.52-0.44c-0.59-0.49-1.48-0.44-2,0.12
		c-0.53,0.57-0.48,1.44,0.11,1.94L122.05,68.9z M64.92,76.75l0.03-0.01l1.33-0.57l0.03-0.01c0,0,0.01,0,0.01,0
		c0.55-0.25,0.79-0.88,0.54-1.41c-0.26-0.53-0.92-0.76-1.47-0.52l-1.37,0.62c-0.54,0.24-0.78,0.86-0.54,1.39
		C63.72,76.75,64.37,76.99,64.92,76.75z M62.27,72.54l0.02-0.01l1.14-0.5l0.03-0.01c0,0,0.01,0,0.01,0c0.52-0.24,0.75-0.84,0.5-1.35
		c-0.25-0.5-0.87-0.72-1.4-0.48l-1.18,0.54c-0.51,0.23-0.74,0.82-0.5,1.32C61.13,72.55,61.75,72.77,62.27,72.54z M64.78,56.11
		l0.65-0.17c0,0,0.02-0.01,0.02-0.01c0.51-0.14,0.81-0.66,0.66-1.16c-0.15-0.5-0.68-0.78-1.2-0.64l-0.67,0.19
		c-0.5,0.15-0.81,0.66-0.66,1.15C63.74,55.96,64.27,56.25,64.78,56.11z M62.11,62.02l0.01,0l0.82-0.28l0.02-0.01c0,0,0.01,0,0.01,0
		c0.51-0.18,0.76-0.73,0.57-1.22c-0.19-0.49-0.76-0.73-1.27-0.55l-0.84,0.31c-0.5,0.18-0.75,0.71-0.57,1.2
		C61.05,61.94,61.61,62.2,62.11,62.02z M72.86,89.4l0.05-0.02l1.87-0.75l0.06-0.02c0,0,0.01,0,0.01,0c0.65-0.27,0.94-0.99,0.66-1.61
		c-0.28-0.62-1.03-0.91-1.68-0.64l-1.96,0.82c-0.63,0.26-0.93,0.96-0.66,1.58C71.49,89.36,72.22,89.65,72.86,89.4z M70.22,85.18
		l0.04-0.02l1.69-0.69L72,84.45c0,0,0.01,0,0.01,0c0.62-0.26,0.89-0.96,0.62-1.55c-0.27-0.59-0.99-0.86-1.61-0.59l-1.76,0.76
		c-0.6,0.26-0.88,0.93-0.62,1.51C68.9,85.16,69.61,85.43,70.22,85.18z M82.11,60.84l-1.09,0.06c-0.63,0.03-1.12,0.55-1.09,1.16
		c0.02,0.61,0.56,1.09,1.2,1.07l0.02,0l1.05-0.04l0.03,0c0,0,0.01,0,0.01,0c0.64-0.03,1.14-0.56,1.1-1.18
		C83.3,61.28,82.75,60.8,82.11,60.84z M67.57,80.96l0.04-0.01l1.51-0.63l0.04-0.02c0,0,0.01,0,0.01,0c0.58-0.26,0.84-0.92,0.57-1.48
		c-0.27-0.56-0.95-0.81-1.54-0.55l-1.57,0.69c-0.57,0.25-0.83,0.9-0.58,1.45C66.31,80.95,66.99,81.21,67.57,80.96z M75.77,54.19
		l0.01,0l0.66-0.05c0,0,0.02,0,0.03,0c0.58-0.05,1-0.55,0.95-1.11c-0.06-0.56-0.57-0.97-1.15-0.91l-0.69,0.06
		c-0.57,0.05-0.99,0.54-0.94,1.09C74.69,53.82,75.19,54.24,75.77,54.19z M71.69,58.42c0.09,0.56,0.63,0.94,1.21,0.85l0.02,0
		l0.86-0.13l0.02,0c0,0,0.01,0,0.01,0c0.58-0.1,0.97-0.63,0.87-1.19c-0.1-0.56-0.65-0.93-1.23-0.84l-0.88,0.15
		C71.99,57.35,71.6,57.87,71.69,58.42z M65.11,64.03l-1.03,0.36c-0.53,0.19-0.8,0.75-0.62,1.26c0.19,0.52,0.77,0.79,1.31,0.61
		l0.02-0.01l1-0.34l0.02-0.01c0,0,0.01,0,0.01,0c0.54-0.19,0.81-0.76,0.62-1.28C66.24,64.11,65.65,63.84,65.11,64.03z M78.44,58.64
		l0.02,0l0.86-0.05l0.02,0c0,0,0.01,0,0.01,0c0.61-0.04,1.07-0.56,1.02-1.15c-0.05-0.59-0.58-1.03-1.19-0.98l-0.89,0.07
		c-0.6,0.04-1.05,0.54-1.02,1.12C77.31,58.23,77.84,58.68,78.44,58.64z M67.44,60.4l0.02,0l0.85-0.21l0.02,0c0,0,0.01,0,0.01,0
		c0.55-0.14,0.87-0.69,0.72-1.21c-0.15-0.53-0.71-0.84-1.26-0.69l-0.87,0.23c-0.54,0.14-0.86,0.67-0.72,1.19
		C66.34,60.22,66.89,60.53,67.44,60.4z M70.24,54.91l0.66-0.11c0,0,0.02,0,0.03,0c0.55-0.1,0.91-0.61,0.8-1.14
		c-0.1-0.53-0.63-0.88-1.18-0.77L69.87,53c-0.54,0.1-0.9,0.61-0.8,1.13C69.17,54.66,69.69,55,70.24,54.91z"/>
</g>
<g id="primary">
	<g>
		<g>
			<path class="st2" d="M166.62,53.27h-5.54v-3.69h15.08v3.69h-5.54v14.51h-4V53.27z"/>
			<path class="st2" d="M180.14,49.58h4v7.2h7.38v-7.2h4v18.2h-4v-7.31h-7.38v7.31h-4V49.58z"/>
			<path class="st2" d="M200.81,49.58h13.73v3.56h-9.75v3.69h8.58v3.56h-8.58v3.82h9.88v3.56h-13.86V49.58z"/>
			<path class="st2" d="M227.57,59.98v-10.4h4v10.3c0,2.96,1.48,4.5,3.93,4.5c2.44,0,3.93-1.48,3.93-4.37V49.58h4v10.27
				c0,5.51-3.09,8.22-7.98,8.22S227.57,65.33,227.57,59.98z"/>
			<path class="st2" d="M248.42,49.58h3.69l8.53,11.21V49.58h3.95v18.2h-3.41l-8.81-11.57v11.57h-3.95V49.58z"/>
			<path class="st2" d="M270.05,49.58h4v18.2h-4V49.58z"/>
			<path class="st2" d="M277.95,49.58h4.42l4.76,12.82l4.76-12.82h4.32l-7.36,18.33h-3.54L277.95,49.58z"/>
			<path class="st2" d="M299.92,49.58h13.73v3.56h-9.75v3.69h8.58v3.56h-8.58v3.82h9.88v3.56h-13.86V49.58z"/>
			<path class="st2" d="M318.26,49.58h8.32c2.31,0,4.11,0.65,5.3,1.85c1.01,1.01,1.56,2.44,1.56,4.16v0.05
				c0,2.94-1.59,4.78-3.9,5.64l4.45,6.5h-4.68l-3.9-5.82h-3.15v5.82h-4V49.58z M326.31,58.42c1.95,0,3.07-1.04,3.07-2.57v-0.05
				c0-1.72-1.2-2.6-3.15-2.6h-3.98v5.23H326.31z"/>
			<path class="st2" d="M336.71,65.13l2.37-2.83c1.64,1.35,3.35,2.21,5.43,2.21c1.64,0,2.63-0.65,2.63-1.72v-0.05
				c0-1.01-0.62-1.53-3.67-2.31c-3.67-0.94-6.03-1.95-6.03-5.56V54.8c0-3.3,2.65-5.49,6.37-5.49c2.65,0,4.91,0.83,6.76,2.31
				l-2.08,3.02c-1.61-1.12-3.2-1.79-4.73-1.79s-2.34,0.7-2.34,1.59v0.05c0,1.2,0.78,1.59,3.93,2.39c3.69,0.96,5.77,2.29,5.77,5.46
				v0.05c0,3.61-2.76,5.64-6.68,5.64C341.68,68.04,338.9,67.08,336.71,65.13z"/>
			<path class="st2" d="M355.69,49.58h4v18.2h-4V49.58z"/>
			<path class="st2" d="M369.4,53.27h-5.54v-3.69h15.08v3.69h-5.54v14.51h-4V53.27z"/>
			<path class="st2" d="M388.04,60.6l-6.99-11.03h4.68l4.34,7.31l4.42-7.31h4.55l-6.99,10.95v7.25h-4V60.6z"/>
			<path class="st2" d="M410.34,58.73v-0.05c0-5.17,4.08-9.41,9.7-9.41s9.65,4.19,9.65,9.36v0.05c0,5.17-4.08,9.41-9.7,9.41
				S410.34,63.91,410.34,58.73z M425.5,58.73v-0.05c0-3.12-2.29-5.72-5.51-5.72s-5.46,2.55-5.46,5.67v0.05
				c0,3.12,2.29,5.72,5.51,5.72C423.27,64.4,425.5,61.85,425.5,58.73z"/>
			<path class="st2" d="M434.16,49.58h13.86v3.64h-9.85v3.87h8.68v3.64h-8.68v7.05h-4V49.58z"/>
			<path class="st2" d="M460.03,58.73v-0.05c0-5.17,3.9-9.41,9.49-9.41c3.43,0,5.49,1.14,7.18,2.81l-2.55,2.94
				c-1.4-1.27-2.83-2.05-4.65-2.05c-3.07,0-5.28,2.55-5.28,5.67v0.05c0,3.12,2.16,5.72,5.28,5.72c2.08,0,3.35-0.83,4.78-2.13
				l2.55,2.57c-1.87,2-3.95,3.25-7.46,3.25C464.01,68.09,460.03,63.96,460.03,58.73z"/>
			<path class="st2" d="M480.93,49.58h4v7.2h7.38v-7.2h4v18.2h-4v-7.31h-7.38v7.31h-4V49.58z"/>
			<path class="st2" d="M501.79,49.58h4v18.2h-4V49.58z"/>
			<path class="st2" d="M510.44,58.73v-0.05c0-5.17,3.9-9.41,9.49-9.41c3.43,0,5.49,1.14,7.18,2.81l-2.55,2.94
				c-1.4-1.27-2.83-2.05-4.65-2.05c-3.07,0-5.28,2.55-5.28,5.67v0.05c0,3.12,2.16,5.72,5.28,5.72c2.08,0,3.35-0.83,4.78-2.13
				l2.55,2.57c-1.87,2-3.95,3.25-7.46,3.25C514.42,68.09,510.44,63.96,510.44,58.73z"/>
			<path class="st2" d="M537.59,49.45h3.69l7.8,18.33h-4.19l-1.66-4.08h-7.7l-1.66,4.08h-4.08L537.59,49.45z M541.8,60.16l-2.42-5.9
				l-2.42,5.9H541.8z"/>
			<path class="st2" d="M550.82,58.73v-0.05c0-5.17,4.03-9.41,9.54-9.41c3.28,0,5.25,0.88,7.15,2.5l-2.52,3.04
				c-1.4-1.17-2.65-1.85-4.76-1.85c-2.91,0-5.23,2.57-5.23,5.67v0.05c0,3.33,2.29,5.77,5.51,5.77c1.46,0,2.76-0.36,3.77-1.09v-2.6
				h-4.03V57.3h7.9v7.9c-1.87,1.59-4.45,2.89-7.77,2.89C554.72,68.09,550.82,64.11,550.82,58.73z"/>
			<path class="st2" d="M572.12,58.73v-0.05c0-5.17,4.08-9.41,9.7-9.41s9.65,4.19,9.65,9.36v0.05c0,5.17-4.08,9.41-9.7,9.41
				S572.12,63.91,572.12,58.73z M587.27,58.73v-0.05c0-3.12-2.29-5.72-5.51-5.72s-5.46,2.55-5.46,5.67v0.05
				c0,3.12,2.29,5.72,5.51,5.72C585.04,64.4,587.27,61.85,587.27,58.73z"/>
		</g>
	</g>
</g>
</svg>
